<svg width="400" height="400" xmlns="http://www.w3.org/2000/svg" xmlns:xlink="http://www.w3.org/1999/xlink"><defs><clipPath id="d"><path d="M273.2 282.1l-7.04-23.15 20.66 12.58 95.4 126-10.73 8.31z"/></clipPath><clipPath id="e"><path d="M266.1 408.4h124.2V249.2H266.1z"/></clipPath><clipPath id="f"><path d="M263.5 413.8h122.7V255.6H263.5z"/></clipPath><clipPath id="g"><path d="M307.1 348.5h8v-30.81h-8z"/></clipPath><clipPath id="h"><path d="M283.1 334.7h21.99v-50.11H283.1z"/></clipPath><clipPath id="i"><path d="M279.4 302.7h21.99v-50.11H279.4z"/></clipPath><clipPath id="j"><path d="M0 500h500V0H0z"/></clipPath><clipPath id="k"><path d="M380.6 402.9h13.27v-12.26H380.6z"/></clipPath><clipPath id="l"><path d="M361.8 416h14.9v-10.22h-14.9z"/></clipPath><clipPath id="m"><path d="M373.7 417.8h9.63v-14.21h-9.63z"/></clipPath><clipPath id="n"><path d="M390.4 426c-11.71-12.64-16.88-22.79-16.88-22.79l1.62-1.25 3.49-2.7s8.54 7.52 17.87 22.01c9.32 14.5 13.75 20.28 13.75 20.28l-.39.3-2.87 2.22-.38.3s-4.5-5.73-16.21-18.37"/></clipPath><clipPath id="o"><path d="M383.8 436.1h26.62v-1.5H383.8z"/></clipPath><clipPath id="p"><path d="M359.3 438.7h57.82v-35.82H359.3z"/></clipPath><clipPath id="q"><path d="M387.3 435h29.79v-3.46H387.3z"/></clipPath><clipPath id="r"><path d="M365.9 443.4h48.91v-46.64H365.9z"/></clipPath><clipPath id="s"><path d="M365.9 406.3h29.4v-5.9h-29.4z"/></clipPath><clipPath id="t"><path d="M376.4 457.1h36.19v-59.13H376.4z"/></clipPath><clipPath id="u"><path d="M401.5 457.1h9.01v-32.45h-9.01z"/></clipPath><clipPath id="v"><path d="M372.3 449.5h36.73v-62.29H372.3z"/></clipPath><clipPath id="w"><path d="M373.8 409.5h11.28v-18.88H373.8z"/></clipPath><clipPath id="x"><path d="M0 500h500V0H0z"/></clipPath><clipPath id="y"><path d="M376.5 444.4h33.78v-45.12H376.5z"/></clipPath><clipPath id="z"><path d="M409.3 455.1h9.34v-6.65h-9.34z"/></clipPath><clipPath id="A"><path d="M406.6 446.2h8.04v-4.66h-8.04z"/></clipPath><clipPath id="B"><path d="M372.2 410.6h13.43v-15.51H372.2z"/></clipPath><clipPath id="C"><path d="M302.6 397.6l95.4-126 20.66-12.58-7.04 23.15-98.29 123.8z"/></clipPath><clipPath id="D"><path d="M294.5 408.4h124.2V249.2H294.5z"/></clipPath><clipPath id="E"><path d="M298.7 413.8h122.7V255.6H298.7z"/></clipPath><clipPath id="F"><path d="M369.7 348.5h8v-30.81h-8z"/></clipPath><clipPath id="G"><path d="M379.7 334.7h21.99v-50.11H379.7z"/></clipPath><clipPath id="H"><path d="M383.4 302.7h21.99v-50.11H383.4z"/></clipPath><clipPath id="I"><path d="M0 500h500V0H0z"/></clipPath><clipPath id="J"><path d="M291 402.9h13.27v-12.26H291z"/></clipPath><clipPath id="K"><path d="M308.1 416H323v-10.22h-14.9z"/></clipPath><clipPath id="L"><path d="M301.5 417.8h9.63v-14.21h-9.63z"/></clipPath><clipPath id="M"><path d="M277.8 444.1l-2.87-2.22-.38-.3s4.43-5.78 13.75-20.28 17.87-22.02 17.87-22.02l1.62 1.25 1.87 1.45 1.62 1.26s-5.17 10.15-16.88 22.79-16.21 18.37-16.21 18.37z"/></clipPath><clipPath id="N"><path d="M274.4 436.1h26.62v-1.5H274.4z"/></clipPath><clipPath id="O"><path d="M267.7 438.7h57.82v-35.82H267.7z"/></clipPath><clipPath id="P"><path d="M267.7 435h29.79v-3.46H267.7z"/></clipPath><clipPath id="Q"><path d="M270 443.4h48.91v-46.64H270z"/></clipPath><clipPath id="R"><path d="M289.5 406.3h29.4v-5.9h-29.4z"/></clipPath><clipPath id="S"><path d="M272.3 457.1h36.19v-59.13H272.3z"/></clipPath><clipPath id="T"><path d="M274.3 457.1h9.01v-32.45h-9.01z"/></clipPath><clipPath id="U"><path d="M275.8 449.5h36.73v-62.29H275.8z"/></clipPath><clipPath id="V"><path d="M299.8 409.5h11.28v-18.88H299.8z"/></clipPath><clipPath id="W"><path d="M0 500h500V0H0z"/></clipPath><clipPath id="X"><path d="M274.6 444.4h33.78v-45.12H274.6z"/></clipPath><clipPath id="Y"><path d="M266.1 455.1h9.34v-6.65h-9.34z"/></clipPath><clipPath id="Z"><path d="M270.2 446.2h8.04v-4.66h-8.04z"/></clipPath><clipPath id="aa"><path d="M299.2 410.6h13.43v-15.51H299.2z"/></clipPath><radialGradient id="ad" cx="605.7" cy="486.6" r="117.1" gradientTransform="matrix(-2.774 0 0 1.97 112.8 -872.9)" gradientUnits="userSpaceOnUse" xlink:href="#a"/><linearGradient id="a"><stop offset="0"/><stop stop-opacity="0" offset="1"/></linearGradient><radialGradient id="ac" cx="605.7" cy="486.6" r="117.1" gradientTransform="matrix(2.774 0 0 1.97 -1892 -872.9)" gradientUnits="userSpaceOnUse" xlink:href="#a"/><linearGradient id="ab" x1="302.9" x2="302.9" y1="366.6" y2="609.5" gradientTransform="matrix(2.774 0 0 1.97 -1892 -872.9)" gradientUnits="userSpaceOnUse"><stop stop-opacity="0" offset="0"/><stop offset=".5"/><stop stop-opacity="0" offset="1"/></linearGradient><linearGradient id="c"><stop stop-color="#8d8d8d" offset="0"/><stop stop-color="#747474" offset="1"/></linearGradient><linearGradient id="b"><stop stop-color="#858585" offset="0"/><stop stop-color="#5f5f5f" offset="1"/></linearGradient><linearGradient id="af" x1="14.21" x2="39.06" y1="5.89" y2="40.63" gradientTransform="matrix(1 0 0 1.022 0 -.07)" gradientUnits="userSpaceOnUse"><stop stop-color="#fff" offset="0"/><stop stop-color="#fff" stop-opacity=".79" offset="1"/></linearGradient><linearGradient id="ai" x1="20.09" x2="20.09" y1="22.05" y2="25.85" gradientUnits="userSpaceOnUse" xlink:href="#b"/><linearGradient id="aj" x1="20.09" x2="20.09" y1="29.03" y2="32.96" gradientUnits="userSpaceOnUse" xlink:href="#b"/><linearGradient id="ak" x1="20.09" x2="20.09" y1="36.1" y2="39.81" gradientUnits="userSpaceOnUse" xlink:href="#b"/><linearGradient id="ah" x1="36.36" x2="36.36" y1="38.04" y2="40.16" gradientTransform="matrix(1.103 0 0 1 -4.12 0)" gradientUnits="userSpaceOnUse" xlink:href="#c"/><linearGradient id="am" x1="36.36" x2="36.36" y1="25.41" y2="26.91" gradientTransform="matrix(1.103 0 0 1 -4.12 0)" gradientUnits="userSpaceOnUse" xlink:href="#c"/><linearGradient id="ae" x1="19.76" x2="25.86" y1="8.81" y2="42.56" gradientUnits="userSpaceOnUse"><stop stop-color="#b8babc" offset="0"/><stop stop-color="#5d6062" offset=".37"/><stop stop-color="#585b5d" offset="1"/></linearGradient><linearGradient id="ag" x1="36.36" x2="36.36" y1="38.04" y2="40.16" gradientTransform="matrix(1.103 0 0 1 -3.5 .63)" gradientUnits="userSpaceOnUse" xlink:href="#c"/><linearGradient id="al" x1="36.36" x2="36.36" y1="25.41" y2="26.91" gradientTransform="matrix(1.103 0 0 1 -3.5 .63)" gradientUnits="userSpaceOnUse" xlink:href="#c"/></defs><path fill="#e4f8a6" fill-rule="evenodd" d="M-.03.17h399.9v399.9H-.03z"/><g clip-path="url(#d)" transform="matrix(1.333 0 0 -1.333 -256.5 676)"><path d="M286.8 271.5l95.4 126-10.73 8.31-98.29-123.8-7.04-23.15z" fill="#becadb"/><g clip-path="url(#e)" opacity=".7"><path d="M269.5 249.2l-3.33 9.77 107.5 149.4 16.73-17.12z" fill="#ccccd3"/></g><g clip-path="url(#f)" opacity=".47"><path d="M263.5 255.5l2.64 3.4 114.9 150.6 5.14 4.2z" fill="#ccccd3"/></g><g clip-path="url(#g)" opacity=".5"><path d="M310.1 317.7l-3 23.91 5 6.9 3-23.92z" fill="#ebeef6"/></g><g clip-path="url(#h)" opacity=".5"><path d="M286.1 284.6l-3 23.91 19 26.2 3-23.91z" fill="#ebeef6"/></g><g clip-path="url(#i)" opacity=".7"><path d="M282.4 252.5l-3 23.91 19 26.2 3-23.91z" fill="#ccccd3"/></g></g><g clip-path="url(#j)" transform="matrix(1.333 0 0 -1.333 -256.5 676)"><path d="M392.7 390.6l-15.16 8.38 3.01 3.88 13.27-10.82z" fill="#765641"/><g clip-path="url(#k)" opacity=".47"><path d="M392.7 390.6l-12.15 12.26 13.27-10.82z" fill="#ccccd3"/></g><path d="M395.1 389.9a1.33 1.33 0 1 0-2.1 1.63 1.33 1.33 0 0 0 2.1-1.63M361.8 414.6l11.89-12.6 3.01 3.88-13.78 10.15z" fill="#765641"/><g clip-path="url(#l)" opacity=".47"><path d="M361.8 414.6l14.85-8.78.06.07-13.78 10.15z" fill="#ccccd3"/></g><path d="M360.5 416.8a1.33 1.33 0 1 1 2.1-1.63 1.33 1.33 0 0 1-2.1 1.63" fill="#765641"/><g clip-path="url(#m)" opacity=".47"><path d="M383.3 417.8a102.66 102.66 0 0 1-9.63-14.21c3.18 4.76 6.42 9.48 9.63 14.21" fill="#ccccd3"/></g></g><g clip-path="url(#n)" transform="matrix(1.333 0 0 -1.333 -256.5 676)"><path d="M396.5 421.3c9.32 14.5 13.75 20.28 13.75 20.28l-.39.3-2.86 2.22-.39.3s-4.5-5.73-16.2-18.37c-11.72-12.64-16.89-22.8-16.89-22.8l5.11-3.95s8.54 7.53 17.87 22.02" fill="#1e2033"/><g clip-path="url(#o)" opacity=".49"><path d="M410.4 434.9l-26.6.86" fill="none" stroke="#ccccd3" stroke-miterlimit="10" stroke-width=".63"/></g><g clip-path="url(#p)" opacity=".49"><g clip-path="url(#q)"><path d="M417.1 432.5a72.63 72.63 0 0 0-29.66 2.21" fill="none" stroke="#ccccd3" stroke-miterlimit="10" stroke-width=".63"/></g><path d="M408.3 427c-7.48-.5-15.04.18-22.31 2M404.1 419.6l-20.8 2.43M401.9 415.4c-9.83-.24-19.69.45-29.39 2.08M397.8 409.5c-10.53-.24-21.07.14-31.55 1.17M393.1 404c-11.25-.9-22.56-1-33.82-.33M415.4 436.7l-20.17 1.69" fill="none" stroke="#ccccd3" stroke-miterlimit="10" stroke-width=".63"/></g><g clip-path="url(#r)" opacity=".49"><g clip-path="url(#s)"><path d="M366 400.7a72.6 72.6 0 0 0 29.27 5.26" fill="none" stroke="#ccccd3" stroke-miterlimit="10" stroke-width=".63"/></g><path d="M373.2 408.2a72.29 72.29 0 0 0 22.11 3.63M375.4 416.4l20.74 2.84M376.4 421.1c9.46 2.7 19.18 4.48 28.97 5.33M379 427.8a262.64 262.64 0 0 0 30.84 6.75M382.1 434.3a243.24 243.24 0 0 0 32.66 8.76M368.7 397l19.96 3.4" fill="none" stroke="#ccccd3" stroke-miterlimit="10" stroke-width=".63"/></g><g clip-path="url(#t)" opacity=".18"><g clip-path="url(#u)"><path d="M409.4 425.2c-3.4 7.06-5.7 17.98-6.7 31.83" fill="none" stroke="#ccccd3" stroke-miterlimit="10" stroke-width="2.44"/></g><path d="M403.9 424c-2.29 6.2-3.93 14.52-4.84 24.54M398.6 415.1l-4.2 23.84M395.6 409.8c-2.77 8.86-5.02 19.37-6.7 31.33M391.2 403.6a292.54 292.54 0 0 0-7.8 31.8M386.8 398.4c-3.52 9.07-6.62 19.56-9.25 31.36M411.3 434.1l-4.45 21.97" fill="none" stroke="#ccccd3" stroke-miterlimit="10" stroke-width="2.44"/></g><g clip-path="url(#v)" opacity=".49"><g clip-path="url(#w)"><path d="M373.9 409.2c4.6-2.24 8.32-8.6 10.84-18.52" fill="none" stroke="#ccccd3" stroke-miterlimit="10" stroke-width=".63"/></g><path d="M380.1 415.5c3.24-2.65 5.95-7.6 7.99-14.58M381.3 421.7l7.17-14.66M388.2 434.7c4.06-4.27 7.68-10.34 10.79-18.12M390.8 441.4c4.34-4.6 8.39-10.42 12.1-17.42M395 449.3c4.95-3.7 9.54-8.95 13.73-15.66M372.5 400.3l7.28-12.95" fill="none" stroke="#ccccd3" stroke-miterlimit="10" stroke-width=".63"/></g></g><g clip-path="url(#x)" transform="matrix(1.333 0 0 -1.333 -256.5 676)"><g clip-path="url(#y)" opacity=".47"><path d="M396.5 421.3c9.32 14.5 13.75 20.28 13.75 20.28l-3.64 2.82s-2.03-2.59-6.9-8.1c-4.36-6.48-8.3-13.29-12.62-19.68-3.53-5.22-7.11-10.42-10.62-15.67l2.16-1.67s8.54 7.53 17.87 22.02" fill="#ccccd3"/></g><path d="M417.8 454.9l.09.11-.13.01-.04.12-.08-.11c-1.4.06-8.35.22-8.1-3.07.28-3.66-2.9-7.55-2.9-7.55l.91-2.4-.07-.1h.11l.05-.12.07.1 2.55-.29s2.97 4.06 6.59 4.7c3.25.57 1.36 7.25.95 8.6" fill="#8a97aa"/><path d="M417.8 454.9l.09.11-.13.01-.04.12-.08-.11c-1.4.06-8.35.22-8.1-3.07.28-3.66-2.9-7.55-2.9-7.55l.91-2.4-.07-.1h.11l.05-.12.07.1 2.55-.29s2.97 4.06 6.59 4.7c3.25.57 1.36 7.25.95 8.6" fill="#765641"/><g clip-path="url(#z)" opacity=".47"><path d="M409.3 449.9l.42-.03c3-.17 5.94-.67 8.83-1.39.37 2.25-.55 5.52-.83 6.41l.09.12h-.13l-.03.12-.1-.11c-1.4.06-8.34.22-8.09-3.07a7.11 7.11 0 0 0-.16-2.05" fill="#ccccd3"/></g><g clip-path="url(#A)" opacity=".47"><path d="M414.6 445.5c-1.05.2-2.1.35-3.18.46-1.18.13-2.4.23-3.6.3-.66-1.13-1.26-1.85-1.26-1.85l.92-2.4-.08-.1.12-.01.04-.12.08.1 2.55-.28s1.85 2.52 4.41 3.9" fill="#ccccd3"/></g><path d="M380.5 395.1l5.13 6.62-11.46 8.89-5.13-6.62 3.17-7.75z" fill="#765641"/><g clip-path="url(#B)" opacity=".47"><path d="M380.5 395.1l5.13 6.62-11.46 8.89 4.56-6.34-6.52-8.03z" fill="#ccccd3"/></g></g><g clip-path="url(#C)" transform="matrix(1.333 0 0 -1.333 -256.5 676)"><path d="M398 271.5l-95.4 126 10.73 8.31 98.29-123.8 7.04-23.15z" fill="#becadb"/><g clip-path="url(#D)" opacity=".7"><path d="M415.3 249.2l3.33 9.77-107.5 149.4-16.73-17.12z" fill="#ccccd3"/></g><g clip-path="url(#E)" opacity=".47"><path d="M421.3 255.5l-2.64 3.4-114.9 150.6-5.14 4.2z" fill="#ccccd3"/></g><g clip-path="url(#F)" opacity=".5"><path d="M374.7 317.7l3 23.91-5 6.9-3-23.92z" fill="#ebeef6"/></g><g clip-path="url(#G)" opacity=".5"><path d="M398.7 284.6l3 23.91-19 26.2-3-23.91z" fill="#ebeef6"/></g><g clip-path="url(#H)" opacity=".7"><path d="M402.4 252.5l3 23.91-19 26.2-3-23.91z" fill="#ccccd3"/></g></g><g clip-path="url(#I)" transform="matrix(1.333 0 0 -1.333 -256.5 676)"><path d="M292.1 390.6l15.16 8.38-3.01 3.88-13.27-10.82z" fill="#765641"/><g clip-path="url(#J)" opacity=".47"><path d="M292.1 390.6l12.15 12.26-13.27-10.82z" fill="#ccccd3"/></g><path d="M289.7 389.9a1.33 1.33 0 1 1 2.1 1.63 1.33 1.33 0 0 1-2.1-1.63M323 414.6L311.11 402l-3 3.88 13.77 10.15z" fill="#765641"/><g clip-path="url(#K)" opacity=".47"><path d="M323 414.6l-14.85-8.78-.06.07 13.78 10.15z" fill="#ccccd3"/></g><path d="M324.3 416.8a1.33 1.33 0 1 0-2.1-1.63 1.33 1.33 0 0 0 2.1 1.63" fill="#765641"/><g clip-path="url(#L)" opacity=".47"><path d="M301.5 417.8c5.82-7.35 8.9-12.83 9.63-14.21-3.18 4.76-6.42 9.48-9.63 14.21" fill="#ccccd3"/></g></g><g clip-path="url(#M)" transform="matrix(1.333 0 0 -1.333 -256.5 676)"><path d="M288.3 421.3c-9.32 14.5-13.75 20.28-13.75 20.28l.39.3 2.86 2.22.39.3s4.5-5.73 16.2-18.37c11.72-12.64 16.89-22.8 16.89-22.8l-5.11-3.95s-8.55 7.53-17.87 22.02" fill="#1e2033"/><g clip-path="url(#N)" opacity=".49"><path d="M274.4 434.9l26.6.86" fill="none" stroke="#ccccd3" stroke-miterlimit="10" stroke-width=".63"/></g><g clip-path="url(#O)" opacity=".49"><g clip-path="url(#P)"><path d="M267.7 432.5a72.63 72.63 0 0 1 29.66 2.21" fill="none" stroke="#ccccd3" stroke-miterlimit="10" stroke-width=".63"/></g><path d="M276.5 427c7.48-.5 15.04.18 22.31 2M280.7 419.6l20.8 2.43M282.9 415.4c9.83-.24 19.69.45 29.39 2.08M287 409.5c10.53-.24 21.07.14 31.55 1.17M291.7 404c11.25-.9 22.56-1 33.82-.33M269.4 436.7l20.17 1.69" fill="none" stroke="#ccccd3" stroke-miterlimit="10" stroke-width=".63"/></g><g clip-path="url(#Q)" opacity=".49"><g clip-path="url(#R)"><path d="M318.8 400.7a72.6 72.6 0 0 1-29.27 5.26" fill="none" stroke="#ccccd3" stroke-miterlimit="10" stroke-width=".63"/></g><path d="M311.6 408.2a72.28 72.28 0 0 1-22.11 3.63M309.4 416.4l-20.74 2.84M308.4 421.1a155.14 155.14 0 0 1-28.97 5.33M305.8 427.8a262.64 262.64 0 0 1-30.84 6.75M302.7 434.3a243.24 243.24 0 0 1-32.66 8.76M316.1 397l-19.96 3.4" fill="none" stroke="#ccccd3" stroke-miterlimit="10" stroke-width=".63"/></g><g clip-path="url(#S)" opacity=".18"><g clip-path="url(#T)"><path d="M275.4 425.2c3.4 7.06 5.7 17.98 6.7 31.83" fill="none" stroke="#ccccd3" stroke-miterlimit="10" stroke-width="2.44"/></g><path d="M280.9 424c2.29 6.2 3.93 14.52 4.84 24.54M286.2 415.1l4.2 23.84M289.2 409.8c2.77 8.86 5.02 19.37 6.7 31.33M293.6 403.6a292.77 292.77 0 0 1 7.8 31.8M298 398.4c3.52 9.07 6.62 19.56 9.25 31.36M273.5 434.1l4.45 21.97" fill="none" stroke="#ccccd3" stroke-miterlimit="10" stroke-width="2.44"/></g><g clip-path="url(#U)" opacity=".49"><g clip-path="url(#V)"><path d="M310.9 409.2c-4.6-2.24-8.32-8.6-10.84-18.52" fill="none" stroke="#ccccd3" stroke-miterlimit="10" stroke-width=".63"/></g><path d="M304.7 415.5c-3.24-2.65-5.95-7.6-7.99-14.58M303.5 421.7l-7.17-14.66M296.6 434.7c-4.06-4.27-7.68-10.34-10.79-18.12M294 441.4c-4.34-4.6-8.39-10.42-12.1-17.42M289.8 449.3c-4.95-3.7-9.54-8.95-13.73-15.66M312.3 400.3l-7.28-12.95" fill="none" stroke="#ccccd3" stroke-miterlimit="10" stroke-width=".63"/></g></g><g clip-path="url(#W)" transform="matrix(1.333 0 0 -1.333 -256.5 676)"><g clip-path="url(#X)" opacity=".47"><path d="M288.3 421.3c-9.32 14.5-13.75 20.28-13.75 20.28l3.64 2.82s2.03-2.59 6.9-8.1c4.36-6.48 8.3-13.29 12.62-19.68 3.53-5.22 7.11-10.42 10.62-15.67l-2.16-1.67s-8.54 7.53-17.87 22.02" fill="#ccccd3"/></g><path d="M267 454.9l-.09.11.13.01.04.12.08-.11c1.4.06 8.35.22 8.1-3.07-.28-3.66 2.9-7.55 2.9-7.55l-.91-2.4.08-.1h-.12l-.05-.12-.07.1-2.55-.29s-2.97 4.06-6.59 4.7c-3.24.57-1.36 7.25-.95 8.6" fill="#8a97aa"/><path d="M267 454.9l-.09.11.13.01.04.12.08-.11c1.4.06 8.35.22 8.1-3.07-.28-3.66 2.9-7.55 2.9-7.55l-.91-2.4.08-.1h-.12l-.05-.12-.07.1-2.55-.29s-2.97 4.06-6.59 4.7c-3.24.57-1.36 7.25-.95 8.6" fill="#765641"/><g clip-path="url(#Y)" opacity=".47"><path d="M275.5 449.9l-.42-.03c-3-.17-5.94-.67-8.83-1.39-.37 2.25.55 5.52.83 6.41l-.09.12h.13l.03.12.1-.11c1.4.06 8.34.22 8.09-3.07-.05-.68.01-1.38.16-2.05" fill="#ccccd3"/></g><g clip-path="url(#Z)" opacity=".47"><path d="M270.2 445.5c1.05.2 2.1.35 3.18.46 1.18.13 2.4.23 3.6.3.66-1.13 1.26-1.85 1.26-1.85l-.92-2.4.08-.1-.12-.01-.04-.12-.08.1-2.55-.28s-1.85 2.52-4.41 3.9" fill="#ccccd3"/></g><path d="M304.3 395.1l-5.13 6.62 11.46 8.89 5.13-6.62-3.17-7.75z" fill="#765641"/><g clip-path="url(#aa)" opacity=".47"><path d="M304.3 395.1l-5.13 6.62 11.46 8.89-4.56-6.34 6.52-8.03z" fill="#ccccd3"/></g></g><g stroke-width=".33"><g color="#000"><path fill="url(#ab)" opacity=".4" d="M-1559-150.7h1340v478.4h-1340z" transform="matrix(.06421 0 0 .06304 256.95 264.79)"/><path d="M-219.6-150.7v478.3c142.9.9 345.4-107.2 345.4-239.2S-33.6-150.7-219.6-150.7z" fill="url(#ac)" opacity=".4" transform="matrix(.06421 0 0 .06304 256.95 264.79)"/><path d="M-1559-150.7v478.3c-142.9.9-345.4-107.2-345.4-239.2S-1745-150.7-1559-150.7z" fill="url(#ad)" opacity=".4" transform="matrix(.06421 0 0 .06304 256.95 264.79)"/></g><g color="#000" transform="matrix(3 0 0 3.02 123.94 139.73)"><rect x="6.51" y="2.51" width="36.98" height="42.1" rx="1.96" ry="1.96" display="block" fill="url(#ae)" stroke="#343434"/><path d="M9.98 5.12h29.97C41.08 5.12 42 6.49 42 8.2v6.97c0 3.32-3.92 4.43-5.06 4.43H13c-1.13 0-5.06-1.51-5.06-4.44V8.2c0-1.7.92-3.08 2.05-3.08z" display="block" fill="#2e3436"/><path d="M10.92 6h28.16C40.14 6 41 6.86 41 7.92v4.33C41 14.3 37.3 15 36.24 15H13.75C12.7 15 9 14.06 9 12.25V7.92C9 6.86 9.86 6 10.92 6z" display="block" fill="#babdb6"/><rect x="12.25" y="7" width="25.25" height="5" rx=".71" ry=".74" display="block" fill="#777b5e"/></g><g color="#000" transform="matrix(3 0 0 3.02 123.94 139.73)"><rect x="7.37" y="3.52" width="34.99" height="40.08" rx=".94" ry=".96" display="block" fill="none" opacity=".49" stroke="url(#af)"/><rect x="33.14" y="30.23" width="6.93" height="10.87" rx="1.52" ry="1.38" display="block" fill="url(#ag)" stroke="#7d7d7d"/><rect x="32.52" y="29.6" width="6.93" height="10.87" rx="1.52" ry="1.38" display="block" fill="url(#ah)" stroke="#343434"/></g><g transform="matrix(3 0 0 3.02 126.06 141.87)" fill="#737373" stroke="#707070" color="#000"><rect x="10.44" y="21.4" width="5.17" height="5.1" rx="1" ry="1" display="block"/><rect x="17.5" y="21.4" width="5.17" height="5.1" rx="1" ry="1" display="block"/><rect x="24.5" y="21.4" width="5.17" height="5.1" rx="1" ry="1" display="block"/><rect x="10.44" y="28.32" width="5.17" height="5.1" rx="1" ry="1" display="block"/><rect x="17.5" y="28.32" width="5.17" height="5.1" rx="1" ry="1" display="block"/><rect x="24.5" y="28.32" width="5.17" height="5.1" rx="1" ry="1" display="block"/><rect x="10.44" y="35.32" width="5.17" height="5.1" rx="1" ry="1" display="block"/><rect x="17.5" y="35.32" width="5.17" height="5.1" rx="1" ry="1" display="block"/><rect x="24.5" y="35.32" width="5.17" height="5.1" rx="1" ry="1" display="block"/></g><g fill="url(#ai)" stroke="#343434" color="#000" transform="matrix(3 0 0 3.02 123.94 139.73)"><rect x="10.44" y="21.4" width="5.17" height="5.1" rx="1" ry="1" display="block"/><rect x="17.5" y="21.4" width="5.17" height="5.1" rx="1" ry="1" display="block"/><rect x="24.5" y="21.4" width="5.17" height="5.1" rx="1" ry="1" display="block"/></g><g fill="url(#aj)" stroke="#343434" color="#000" transform="matrix(3 0 0 3.02 123.94 139.73)"><rect x="10.44" y="28.32" width="5.17" height="5.1" rx="1" ry="1" display="block"/><rect x="17.5" y="28.32" width="5.17" height="5.1" rx="1" ry="1" display="block"/><rect x="24.5" y="28.32" width="5.17" height="5.1" rx="1" ry="1" display="block"/></g><g fill="url(#ak)" stroke="#343434" color="#000" transform="matrix(3 0 0 3.02 123.94 139.73)"><rect x="10.44" y="35.32" width="5.17" height="5.1" rx="1" ry="1" display="block"/><rect x="17.5" y="35.32" width="5.17" height="5.1" rx="1" ry="1" display="block"/><rect x="24.5" y="35.32" width="5.17" height="5.1" rx="1" ry="1" display="block"/></g><g transform="matrix(3 0 0 3.02 123.94 139.73)"><rect x="33.14" y="22.04" width="6.93" height="6.27" rx="1.34" ry="1.21" color="#000" display="block" fill="url(#al)" stroke="#7d7d7d"/><rect x="32.52" y="21.42" width="6.93" height="6.27" rx="1.34" ry="1.21" color="#000" display="block" fill="url(#am)" stroke="#343434"/><path d="M28.41 9.56c.17.05.3.12.4.24.09.1.13.25.13.42 0 .25-.1.45-.3.58-.19.13-.47.2-.85.2a2.46 2.46 0 0 1-.79-.13v-.51c.13.06.25.1.37.14.12.03.24.05.36.05.18 0 .31-.03.4-.1a.3.3 0 0 0 .15-.26.3.3 0 0 0-.15-.26.8.8 0 0 0-.42-.1h-.27v-.42h.28a.7.7 0 0 0 .37-.08.27.27 0 0 0 .13-.24c0-.1-.04-.17-.12-.23a.6.6 0 0 0-.34-.08 1.5 1.5 0 0 0-.65.15v-.49a3.02 3.02 0 0 1 .77-.11c.34 0 .59.05.75.16.17.11.25.28.25.5 0 .15-.04.27-.12.37-.08.1-.2.16-.35.2m1.17.72h.62v.67h-.62v-.67m1.4.21h.58V8.83l-.6.12V8.5l.6-.12h.63v2.11h.58v.46h-1.8v-.46m3.34-1.57L33.6 10h.72V8.92m-.1-.55h.73V10h.37v.48h-.37v.47h-.63v-.47h-1.14v-.57l1.03-1.53"/><path d="M36.27 33.71v1.21h1.2v.55h-1.2v1.21h-.55v-1.21h-1.2v-.55h1.2v-1.21h.55M35.32 24.17h1.45v.67h-1.45v-.67" fill="#b8b8b8"/></g></g></svg>